<svg xmlns="http://www.w3.org/2000/svg" xmlns:xlink="http://www.w3.org/1999/xlink" width="615" height="338" viewBox="0 0 615 338"><defs><style>.a{fill:rgba(255,255,255,0);stroke:#707070;}.b{opacity:0.296;clip-path:url(#a);}.c{fill:#fff;}.d{opacity:0.9;}</style><clipPath id="a"><rect class="a" width="615" height="338" transform="translate(1293.341 155.833)"/></clipPath></defs><g class="b" transform="translate(-1293.341 -155.833)"><g transform="translate(1428.098 156.076)"><g transform="translate(0)"><path class="c" d="M209.913,243.946H164.25l-21.629,49.313h-40.3L209.913,72.872v.169h0V35.55h0L37.8,91.618,64.053,299.507l145.86,73.8h0Z" transform="translate(-37.801 -35.55)"/><path class="c" d="M127.98,181.054h31.427V111.983Z" transform="translate(12.704 -3.056)"/></g><g class="d" transform="translate(172.111)"><path class="c" d="M148.125,243.946h45.662l21.629,49.313h40.3L148.125,72.872v.169h0V35.55h0L320.236,91.618,293.985,299.507l-145.86,73.8h0Z" transform="translate(-148.125 -35.55)"/><path class="c" d="M179.552,181.054H148.125V111.983Z" transform="translate(-148.125 -3.056)"/></g></g></g></svg>